<?xml version="1.0"?>
<svg xmlns="http://www.w3.org/2000/svg" xmlns:lc="http://www.librecad.org" xmlns:xlink="http://www.w3.org/1999/xlink" width="88mm" height="48mm" viewBox="0 0 88 48">
    <g lc:layername="outline" lc:is_locked="false" lc:is_construction="false" fill="none" stroke="black" stroke-width="1">
        <line x1="16.8" y1="28" x2="16.8" y2="38"/>
        <line x1="16.8" y1="38" x2="20" y2="38"/>
        <line x1="20" y1="38" x2="20" y2="28"/>
        <line x1="0" y1="48" x2="40" y2="48"/>
        <path d="M0,48 C0,38 8.4,33 12.6,30.5 C16.8,28 16.8,28 16.8,28 "/>
        <line x1="40" y1="48" x2="50" y2="48"/>
        <path d="M50,48 C55,48 55,43 55,40.5 C55,38 55,38 55,38 C55,38 55,38 55,38 C55,38 55,38 55,38 "/>
        <line x1="55" y1="38" x2="55" y2="30"/>
        <path d="M55,30 C55,28 52.5,28 51.25,28 C50,28 50,28 50,28 C50,28 50,28 50,28 C50,28 50,28 50,28 "/>
        <path d="M20,28 C35,28 35,35.5 36,39.25 C37,43 39,43 41.5,43 C44,43 47,43 48.5,41.75 C50,40.5 50,38 50,28 "/>
    </g>
</svg>
